<svg xmlns="http://www.w3.org/2000/svg" width="111" height="392" viewBox="0 0 111 392" fill="#b7fdf2"><path d="M110.976 391.68V357H91.392C72.216 357 67.32 349.248 67.32 329.664V239.904C67.32 215.016 59.568 202.368 43.656 195.84C59.568 189.72 67.32 177.48 67.32 152.592V62.016C67.32 42.84 72.216 34.68 91.392 34.68H110.976V0H82.008C44.472 0 28.152 21.216 28.152 58.344V152.592C28.152 168.504 23.664 178.704 5.304 178.704H0V213.384H5.304C23.664 213.384 28.152 223.584 28.152 239.904V333.336C28.152 370.464 44.472 391.68 82.008 391.68H110.976Z" fill="	 #bfbfbf"></path></svg>