<svg xmlns="http://www.w3.org/2000/svg" version="1.1" width="981" height="572">
<path d="M0 0 C1.96311796 0.48087142 3.92149376 0.98146089 5.875 1.5 C22.44981028 5.82845364 40.17401666 4.02304465 57.11053467 3.14413452 C71.02672748 2.43460909 84.94881806 1.78457872 98.88479614 1.70043945 C100.79820084 1.68799932 102.71149992 1.66167254 104.62475586 1.63476562 C114.73666178 1.64032124 127.1036599 1.93485359 135 9 C138.39053009 12.48216603 139.78717433 15.10500956 140 20 C138 23 138 23 134.1484375 23.984375 C132.55953293 24.25318465 130.9681833 24.50783614 129.375 24.75 C128.59253906 24.88792969 127.81007813 25.02585937 127.00390625 25.16796875 C120.78735063 26.16797853 114.86579855 26.59211031 109.1875 23.4375 C100.17093688 19.37120683 91.11303156 22.88611057 82.30859375 25.90625 C79 27 79 27 77 27 C77.35078613 28.14734619 77.70157227 29.29469238 78.06298828 30.47680664 C84.73408862 52.30645262 91.38185978 74.14357451 97.93890381 96.00778198 C98.56218819 98.08333076 99.18738737 100.1583055 99.81451416 102.23269653 C100.69152111 105.13534714 101.56150832 108.04001129 102.4296875 110.9453125 C102.82241852 112.23756493 102.82241852 112.23756493 103.2230835 113.55592346 C103.45867981 114.34973923 103.69427612 115.14355499 103.93701172 115.96142578 C104.14349335 116.64874786 104.34997498 117.33606995 104.56271362 118.04421997 C105 120 105 120 105 124 C105.93433019 123.88062387 106.86866037 123.76124775 107.8313036 123.63825417 C120.93841883 122.00771249 134.08055594 120.92099293 147.24291992 119.84521484 C149.74799614 119.63827356 152.25305131 119.43107748 154.75808716 119.22364807 C160.81288819 118.72298382 166.86790947 118.22506632 172.92304983 117.72852491 C177.84402181 117.32492142 182.76489196 116.92009659 187.68569374 116.51442337 C188.74121592 116.42740596 188.74121592 116.42740596 189.81806177 116.33863062 C191.24799658 116.22074004 192.67793111 116.10284609 194.10786537 115.98494883 C207.46423495 114.88385371 220.82089451 113.78631045 234.17766318 112.69006856 C245.62980542 111.75007115 257.08171148 110.80724047 268.53344727 109.86230469 C281.86329425 108.76239983 295.19326862 107.66406109 308.52346116 106.56835139 C309.94440077 106.45155059 311.36534028 106.3347485 312.78627968 106.2179451 C313.48526873 106.16048876 314.18425779 106.10303242 314.90442833 106.04383498 C319.82311369 105.63942051 324.74170784 105.23390833 329.66026878 104.82798386 C336.27331194 104.28225741 342.88656788 103.73916519 349.4999733 103.19784355 C351.92766158 102.99873958 354.35528144 102.79879922 356.78282738 102.59796715 C360.09239753 102.32430369 363.40220083 102.05365598 366.71208191 101.78378296 C367.67520064 101.70343728 368.63831937 101.62309161 369.63062352 101.54031122 C374.10159067 101.17891705 378.50949914 100.9066724 383 101 C382.76289307 99.97753174 382.52578613 98.95506348 382.28149414 97.90161133 C381.3904411 94.04764325 380.51197278 90.19089117 379.63696289 86.33325195 C379.25911754 84.67526079 378.87802295 83.01800618 378.4934082 81.36157227 C372.7111055 56.43057483 372.7111055 56.43057483 375 48.5625 C381.75955403 39.90182139 389.873447 37.16462067 400.609375 35.41015625 C424.16332676 32.77433684 449.05035203 35.41962711 472.18408203 40.1730957 C479.76670972 41.62749347 486.67598502 40.15412947 494.09082031 38.48828125 C519.96113759 32.72342193 519.96113759 32.72342193 529.203125 38.55078125 C537.39370084 45.15665872 542.66025578 51.98076733 546 62 C548.15968009 91.05586411 548.15968009 91.05586411 542.42578125 97.87109375 C541.95527344 98.24363281 541.48476563 98.61617188 541 99 C538.63660796 94.31133514 538.63661391 89.88507596 538.5 84.75 C538.26721021 76.16416466 537.78471182 68.05076821 533.0625 60.625 C532.30646484 59.40683594 532.30646484 59.40683594 531.53515625 58.1640625 C529.56414109 55.28674996 529.56414109 55.28674996 527 53 C523.26647235 53.40962619 520.96201798 54.44396985 518.01171875 56.72265625 C517.30595703 57.26083984 516.60019531 57.79902344 515.87304688 58.35351562 C515.15181641 58.91748047 514.43058594 59.48144531 513.6875 60.0625 C512.94693359 60.63033203 512.20636719 61.19816406 511.44335938 61.78320312 C509.62267106 63.1810219 507.80867058 64.58668809 506 66 C506.28875 66.86625 506.5775 67.7325 506.875 68.625 C507.24625 69.73875 507.6175 70.8525 508 72 C508.54527344 73.43472656 508.54527344 73.43472656 509.1015625 74.8984375 C512.42902086 86.38540246 509.88676013 98.21498045 504.6796875 108.64453125 C498.56101772 119.52773898 490.19798184 126.97058171 480 134 C479.19820312 134.556875 478.39640625 135.11375 477.5703125 135.6875 C472.57815162 138.91475552 467.32503564 141.26193143 461.8125 143.4375 C461.14702148 143.70908936 460.48154297 143.98067871 459.79589844 144.26049805 C455.15507382 145.99878802 451.80025318 146.1852477 447 145 C444.20693999 142.77987537 443.19811966 141.13825351 442.5859375 137.62109375 C442.2090345 130.96578033 442.2090345 130.96578033 445.15625 127.3671875 C448.06405776 124.94667719 450.58456505 123.58168155 454.0625 122.125 C468.07110423 115.94660199 479.2202136 109.21095598 486.875 95.6875 C488.60749596 90.00876324 489.21658715 84.42054937 487.19140625 78.7265625 C482.09179059 69.51549199 471.56342934 65.16304322 462 62 C449.54410633 58.62565152 437.40569574 56.82086945 424.5 56.8125 C423.50613281 56.80025391 422.51226563 56.78800781 421.48828125 56.77539062 C411.81446066 56.69923952 411.81446066 56.69923952 403.03125 60.328125 C399.11981002 66.66939891 402.47381057 77.10958504 403.9609375 83.89453125 C404.17789276 84.88481827 404.39484802 85.87510529 404.61837769 86.895401 C407.71659903 100.61791843 411.62078481 114.13112736 415.47533798 127.65577698 C416.13695746 129.97949661 416.79608171 132.30391098 417.45449829 134.62854004 C426.02075529 164.86563808 434.891069 195.00802366 443.93196869 225.10646152 C445.69917091 230.99220683 447.45906547 236.8801205 449.21728516 242.76855469 C451.78887096 251.38090006 454.36477911 259.99193824 456.9457922 268.60146332 C458.35832159 273.31326809 459.76940567 278.025492 461.17660522 282.7388916 C462.49935325 287.16849968 463.82757219 291.59643167 465.15990257 296.02316666 C465.652237 297.66218443 466.14268764 299.3017694 466.63112831 300.94195175 C467.30431009 303.20131843 467.9843153 305.4585234 468.66601562 307.71533203 C468.85919467 308.36948215 469.05237371 309.02363228 469.25140667 309.69760513 C472.26328076 319.58785972 477.41790048 324.80685447 485.1875 331.3125 C485.75339844 331.78816406 486.31929687 332.26382812 486.90234375 332.75390625 C497.05805467 342.70700858 497.05805467 342.70700858 509.32421875 348.15234375 C510.10410156 348.08144531 510.88398437 348.01054687 511.6875 347.9375 C518.35363394 347.76886268 523.94199408 349.40184459 529.078125 353.765625 C534.20373361 359.23581235 537.01511829 364.86452523 537.4375 372.375 C537.08725734 380.20157644 534.34601591 386.16488736 528.625 391.5 C522.35321222 396.54182615 517.06760327 397.53911198 509.1015625 397.37109375 C503.13556419 396.65727783 498.31541147 394.38266408 494.1171875 390.0625 C489.7127129 384.44519906 487.70595844 380.33123712 488.53833008 373.07470703 C489.2076618 366.39072585 489.2076618 366.39072585 486.84423828 360.31445312 C483.61201133 357.10437194 479.79534012 354.70720901 475.95898438 352.28271484 C472.81017173 350.22091753 469.93510913 347.86393612 467.0625 345.4375 C466.52222168 344.98213867 465.98194336 344.52677734 465.42529297 344.05761719 C454.91058534 334.92942856 450.44531403 323.11510347 446.53125 310.1171875 C446.21385864 309.08014175 445.89646729 308.04309601 445.56945801 306.97462463 C444.54090951 303.60970199 443.52031168 300.2424284 442.5 296.875 C441.79088952 294.54809843 441.08124956 292.22135815 440.37109375 289.89477539 C439.29344091 286.36345274 438.21635296 282.8319658 437.14160156 279.29975891 C434.87762172 271.86062122 432.59047419 264.42911658 430.28125 257.00390625 C429.71805994 255.189628 429.15490768 253.37533801 428.59179688 251.56103516 C427.80159554 249.0155299 427.01028465 246.47040207 426.21508789 243.92645264 C425.49376543 241.61749086 424.7775584 239.30700165 424.0625 236.99609375 C423.85081177 236.32357071 423.63912354 235.65104767 423.42102051 234.95814514 C422.56511635 232.17757276 422 229.93101678 422 227 C401.7418537 240.62352287 383.44057553 256.40318168 370 277 C369.60377441 277.60521484 369.20754883 278.21042969 368.79931641 278.83398438 C344.55351088 316.40550023 335.26839974 362.15669315 344.1875 406.1328125 C350.85512559 436.65572074 364.27249887 464.98655287 385.89453125 487.77734375 C387.57531856 489.55168137 389.11746551 491.33177505 390.625 493.25 C400.45553662 504.63272661 414.07721545 513.55092699 427 521 C428.11503906 521.65742187 429.23007812 522.31484375 430.37890625 522.9921875 C469.51889283 545.41630852 516.6184331 548.76839279 559.66967773 537.33959961 C569.52743372 534.54573965 578.79766048 530.4668903 588 526 C588.66805664 525.67628418 589.33611328 525.35256836 590.02441406 525.01904297 C629.53646278 505.57927313 660.18451774 469.49625158 674.43359375 427.96484375 C688.51083018 384.66288472 685.89140557 337.58986828 665.82275391 296.59521484 C644.96963277 255.82344832 609.85875036 224.91034728 566.41552734 210.12011719 C560.33870417 208.15824577 554.20863438 206.48934751 548 205 C547.25943359 204.82065918 546.51886719 204.64131836 545.75585938 204.45654297 C522.72605923 199.18106327 497.03644642 200.67722786 474.13354492 205.6328125 C472 206 472 206 468 206 C467.01321102 203.14827038 466.03543182 200.29395658 465.0625 197.4375 C464.78470703 196.63763672 464.50691406 195.83777344 464.22070312 195.01367188 C462.6315549 190.32281264 461.52252019 185.92756382 461 181 C508.75687027 168.22348665 561.43975332 172.83443458 605 197 C605.9384375 197.47695312 606.876875 197.95390625 607.84375 198.4453125 C628.39658831 209.02397928 648.48902215 224.9559145 663 243 C663.39896484 243.48662109 663.79792969 243.97324219 664.20898438 244.47460938 C698.72871775 286.65419599 714.82553966 338.36928708 710.10351562 392.68530273 C705.42079391 438.51061858 685.57375421 478.88826923 654 512 C653.16210938 512.90234375 652.32421875 513.8046875 651.4609375 514.734375 C617.94425405 549.76994138 567.79676903 569.9869255 519.73046875 571.25 C467.54707988 571.98159032 417.97578642 555.7913707 379.265625 520.078125 C377.1982212 518.18181669 375.08249907 516.36970394 372.9375 514.5625 C359.56231929 502.81583431 348.77962527 487.382189 340 472 C339.64873047 471.39704102 339.29746094 470.79408203 338.93554688 470.17285156 C312.7802193 424.94304789 307.47826463 370.24653704 320.56640625 320.046875 C329.77570517 286.68633347 347.27531151 257.89847368 371 233 C371.72574219 232.22140625 372.45148438 231.4428125 373.19921875 230.640625 C384.44510181 218.91663601 398.19060653 209.43907379 412 201 C411.34393867 193.90828945 409.07454482 187.32796313 406.9375 180.5625 C406.56044922 179.35400391 406.18339844 178.14550781 405.79492188 176.90039062 C404.8680528 173.93206307 403.93628172 170.96536931 403 168 C398.93696894 172.00936838 395.01606319 176.13646934 391.125 180.3125 C390.50077148 180.9818457 389.87654297 181.65119141 389.23339844 182.34082031 C385.65635345 186.18740715 382.13039941 190.06569766 378.703125 194.046875 C376.50634095 196.56612276 374.25310381 199.03102996 372 201.5 C368.54671847 205.28662998 365.13900949 209.1047632 361.77734375 212.97265625 C359.70640513 215.33489173 357.60487152 217.66795853 355.5 220 C352.81016569 222.98062721 350.13689636 225.97245233 347.5 229 C342.62856797 234.58979989 337.6410485 240.07534898 332.671875 245.578125 C328.68295423 250.00121401 324.72432093 254.44615005 320.8125 258.9375 C317.9673071 262.1751333 315.07146164 265.3668629 312.18359375 268.56640625 C310.29151315 270.67511146 308.42094242 272.79919801 306.5625 274.9375 C302.91062947 279.13164365 299.15733816 283.23094292 295.41015625 287.33984375 C292.83006864 290.18755795 290.29798144 293.07244018 287.77734375 295.97265625 C285.70640513 298.33489173 283.60487152 300.66795853 281.5 303 C278.81016569 305.98062721 276.13689636 308.97245233 273.5 312 C268.62856797 317.58979989 263.6410485 323.07534898 258.671875 328.578125 C254.68295423 333.00121401 250.72432093 337.44615005 246.8125 341.9375 C243.9673071 345.1751333 241.07146164 348.3668629 238.18359375 351.56640625 C235.7238948 354.30771652 233.30506687 357.08216013 230.890625 359.86328125 C227.76604165 363.39457689 224.54504266 366.83823765 221.33203125 370.2890625 C218.92742395 373.08436814 216.97949151 375.89652136 215 379 C215.33773438 379.6290625 215.67546875 380.258125 216.0234375 380.90625 C216.46945312 381.7621875 216.91546875 382.618125 217.375 383.5 C217.81585938 384.3353125 218.25671875 385.170625 218.7109375 386.03125 C224.08050457 398.39752568 223.91980411 414.55313109 219.3203125 427.11328125 C212.64394707 441.71042342 202.24765316 451.63548847 187.57421875 458.0625 C173.27114409 463.06256644 157.53366292 461.61979053 143.875 455.5 C130.31706733 448.12448463 121.19178855 436.93742694 116.39868164 422.27783203 C116.13487198 421.47459503 115.87106232 420.67135803 115.59925842 419.84378052 C115.40150314 419.23533295 115.20374786 418.62688538 115 418 C94.11306014 414.08190733 73.22497017 410.17000089 52.33549309 406.26545715 C42.63619532 404.45236962 32.9372843 402.63725913 23.23925781 400.81738281 C14.78653914 399.23119917 6.3331197 397.64881441 -2.12116325 396.07098866 C-6.59766163 395.23540094 -11.07378588 394.39791435 -15.54907608 393.55587769 C-19.76209295 392.76325048 -23.97602891 391.97570951 -28.19072151 391.1920433 C-29.7366117 390.90368187 -31.2821582 390.61347087 -32.82732582 390.32126236 C-34.93941437 389.92213088 -37.05264659 389.52971537 -39.16629028 389.13891602 C-40.93889819 388.80707054 -40.93889819 388.80707054 -42.74731636 388.46852112 C-48.54133293 387.46438893 -48.54133293 387.46438893 -53.87109375 389.20703125 C-54.38800781 389.73683594 -54.90492188 390.26664062 -55.4375 390.8125 C-61.84394892 396.69086853 -67.27162752 397.58543449 -75.84765625 397.33984375 C-83.35466191 396.53053831 -87.84624278 392.90702945 -92.5234375 387.140625 C-96.37679439 381.55427691 -97.91280071 375.8010081 -97 369 C-95.63758314 362.01607936 -92.56114388 356.51206362 -87 352 C-85.31240188 351.3017765 -83.60122085 350.65887659 -81.875 350.0625 C-73.73406129 346.74170781 -69.65277042 339.24091875 -64.71777344 332.3359375 C-61.90522455 328.51125476 -58.86081312 324.88752116 -55.8125 321.25 C-50.87829689 315.31802735 -46.09217758 309.30620383 -41.41796875 303.16796875 C-34.57812992 294.20656441 -27.53481043 285.40314599 -20.4831543 276.6081543 C-15.27595739 270.10820574 -10.13518088 263.55688921 -5 257 C1.13229282 249.1699419 7.29555658 241.36730552 13.51708984 233.60791016 C18.72411346 227.10796894 23.86488913 220.55679982 29 214 C35.13229282 206.1699419 41.29555658 198.36730552 47.51708984 190.60791016 C50.88707149 186.40115324 54.2347215 182.17771474 57.5625 177.9375 C58.01383301 177.36241699 58.46516602 176.78733398 58.93017578 176.19482422 C61.18176335 173.32366687 63.42989571 170.4498378 65.67578125 167.57421875 C66.12099121 167.00662842 66.56620117 166.43903809 67.02490234 165.85424805 C67.92360179 164.7031652 68.8159018 163.54705676 69.70166016 162.38598633 C72.22070497 159.11684811 74.84203424 156.08295909 77.72265625 153.125 C78.34027832 152.45839355 78.95790039 151.79178711 79.59423828 151.10498047 C80.78528836 149.8255876 82.01552504 148.5811289 83.28857422 147.38330078 C85.22895466 145.24479304 86.11165053 143.76311411 87 141 C86.59912694 137.67736162 86.59912694 137.67736162 85.52270508 134.04248047 C85.33633106 133.34841599 85.14995705 132.6543515 84.95793533 131.93925476 C84.32602999 129.61981536 83.66688821 127.30961418 83 125 C82.77017363 124.19991642 82.54034725 123.39983284 82.30355644 122.5755043 C80.4854606 116.285571 78.59733262 110.01734551 76.703125 103.75 C76.10317178 101.75514284 75.50354802 99.76018656 74.90423584 97.76513672 C73.34248132 92.56936485 71.77631996 87.37493201 70.20916748 82.18078613 C68.60417567 76.85832076 67.00345128 71.53457236 65.40234375 66.2109375 C62.27235257 55.80604727 59.13769409 45.40256972 56 35 C54.24684227 35.00516632 54.24684227 35.00516632 52.45826721 35.01043701 C50.9104107 35.01322257 49.36255404 35.01592404 47.81469727 35.01855469 C46.66175045 35.02228592 46.66175045 35.02228592 45.48551178 35.02609253 C40.26504271 35.03274515 35.12399482 34.88664639 29.9375 34.25 C29.20128418 34.16202148 28.46506836 34.07404297 27.70654297 33.98339844 C15.01926183 32.33739279 -1.449601 29.92766645 -10.1875 19.75 C-12.87870859 15.66678697 -13.18439258 13.46665433 -13.25 8.5625 C-13.27578125 7.40878906 -13.3015625 6.25507812 -13.328125 5.06640625 C-13 2 -13 2 -11.76171875 0.08203125 C-8.17501957 -2.12088598 -3.94895882 -0.71994623 0 0 Z M372.04878235 122.82847595 C370.95531516 122.91760854 369.86184797 123.00674112 368.73524541 123.0985747 C365.07627908 123.39754547 361.41766311 123.70060433 357.7590332 124.00366211 C355.1340014 124.21902194 352.50895221 124.43415935 349.88388062 124.64903259 C343.49778634 125.17230514 337.1119515 125.69868086 330.72620646 126.22619646 C325.53722396 126.65480028 320.3481531 127.08231868 315.15901756 127.50906563 C314.42009943 127.56983485 313.6811813 127.63060408 312.91987171 127.69321479 C311.41874654 127.81666501 309.9176212 127.94011327 308.4164957 128.0635596 C294.34824698 129.22061328 280.28029541 130.38124772 266.21243914 131.54306186 C254.13918365 132.54005747 242.06566158 133.53377089 229.99194336 134.52514648 C215.96890276 135.67658183 201.94604422 136.83019749 187.92346066 137.98718649 C186.42881911 138.11050065 184.93417727 138.23381137 183.43953514 138.35711861 C182.70414546 138.41778832 181.96875578 138.47845803 181.21108157 138.54096622 C176.02624918 138.96855836 170.84128829 139.39456972 165.6562748 139.81995964 C158.6817771 140.39220239 151.7075755 140.96794151 144.73356247 141.54606056 C142.169754 141.75804944 139.60585078 141.96889587 137.04184914 142.17853546 C133.5510596 142.46413424 130.06063154 142.75380391 126.57026672 143.04454041 C125.54780973 143.12722843 124.52535274 143.20991645 123.47191221 143.29511017 C122.07134132 143.41304879 122.07134132 143.41304879 120.64247608 143.53337002 C119.83670685 143.59982108 119.03093761 143.66627213 118.20075113 143.73473686 C116.06501831 143.99216315 114.07196074 144.42944958 112 145 C115.0582602 158.17239952 118.93075922 171.07531776 122.84933472 184.01306152 C124.03396813 187.92466103 125.21418053 191.8375688 126.39282227 195.75097656 C126.80378287 197.11532724 127.21474788 198.47967659 127.62571716 199.84402466 C127.83167448 200.52779301 128.0376318 201.21156136 128.24983025 201.91604996 C128.88335688 204.01867757 129.51736592 206.12115917 130.15150452 208.22360229 C134.35701774 222.1687878 138.52896908 236.12392616 142.69342041 250.0814209 C143.72890963 253.55169468 144.76557889 257.02161467 145.80258942 260.4914341 C150.14386567 275.01870482 154.46366989 289.55197814 158.742136 304.09788132 C160.06391629 308.5896237 161.38876458 313.0804626 162.71340084 317.57136345 C163.97605123 321.85405692 165.23277478 326.13843371 166.48513889 330.4241457 C167.07030287 332.42301341 167.65836581 334.4209999 168.24775696 336.41862488 C168.96591676 338.85294626 169.67929924 341.28868384 170.38713074 343.72602844 C170.70362076 344.793629 171.02011078 345.86122955 171.34619141 346.96118164 C171.61895905 347.89160782 171.89172668 348.822034 172.17276001 349.78065491 C172.88551482 352.162586 172.88551482 352.162586 175 354 C176.9854845 354.499257 178.98951183 354.92605003 181 355.3125 C186.5812677 356.49921473 191.00343134 358.27188025 195.87890625 361.20703125 C197.97508788 362.26001049 197.97508788 362.26001049 199.94580078 361.2355957 C202.00480783 359.9971081 203.37473476 358.79190833 204.98828125 357.0234375 C205.52614258 356.43916992 206.06400391 355.85490234 206.61816406 355.25292969 C207.45686035 354.32335449 207.45686035 354.32335449 208.3125 353.375 C208.89354492 352.73981445 209.47458984 352.10462891 210.07324219 351.45019531 C213.53980155 347.64960333 216.96664649 343.81586496 220.328125 339.921875 C222.35758073 337.58894926 224.427647 335.29488755 226.5 333 C229.17048344 330.04130249 231.82298058 327.07073528 234.4375 324.0625 C238.08937053 319.86835635 241.84266184 315.76905708 245.58984375 311.66015625 C248.16993136 308.81244205 250.70201856 305.92755982 253.22265625 303.02734375 C255.29359487 300.66510827 257.39512848 298.33204147 259.5 296 C262.18983431 293.01937279 264.86310364 290.02754767 267.5 287 C272.37143203 281.41020011 277.3589515 275.92465102 282.328125 270.421875 C286.31704577 265.99878599 290.27567907 261.55384995 294.1875 257.0625 C297.03147795 253.82624923 299.92612701 250.63591332 302.8125 247.4375 C304.72554149 245.30582519 306.61887612 243.1598089 308.5 241 C313.37143203 235.41020011 318.3589515 229.92465102 323.328125 224.421875 C327.31704577 219.99878599 331.27567907 215.55384995 335.1875 211.0625 C338.0326929 207.8248667 340.92853836 204.6331371 343.81640625 201.43359375 C345.70848685 199.32488854 347.57905758 197.20080199 349.4375 195.0625 C353.08937053 190.86835635 356.84266184 186.76905708 360.58984375 182.66015625 C363.16993136 179.81244205 365.70201856 176.92755982 368.22265625 174.02734375 C370.29359487 171.66510827 372.39512848 169.33204147 374.5 167 C377.75653601 163.39140604 380.97498042 159.75413051 384.1640625 156.0859375 C387.12690851 152.71964012 390.15552169 149.41276778 393.1796875 146.1015625 C395.03676667 144.13276579 395.03676667 144.13276579 396 142 C395.57613403 139.84469495 395.57613403 139.84469495 394.78515625 137.4296875 C394.51123047 136.53378906 394.23730469 135.63789063 393.95507812 134.71484375 C393.51325195 133.30912109 393.51325195 133.30912109 393.0625 131.875 C392.77181641 130.93011719 392.48113281 129.98523438 392.18164062 129.01171875 C391.46093521 126.67237987 390.73347394 124.33536079 390 122 C383.97497783 121.88919598 378.05092832 122.3266918 372.04878235 122.82847595 Z M95 165 C93.33708078 167.01882075 91.72292838 169.05546269 90.125 171.125 C89.11461386 172.42189878 88.10419636 173.71877313 87.09375 175.015625 C86.57683594 175.68142578 86.05992187 176.34722656 85.52734375 177.03320312 C83.23404227 179.98634198 80.93199175 182.9325469 78.625 185.875 C78.1801123 186.44259033 77.73522461 187.01018066 77.27685547 187.5949707 C73.1064087 192.89777576 68.84818371 198.12767877 64.58374023 203.35498047 C60.65042376 208.18177193 56.7799446 213.05170889 53 218 C55.23515028 221.07333164 57.61866233 223.61336298 60.5 226.0625 C100.60886958 260.68512864 121.25438335 310.74253534 125.3984375 362.7734375 C125.64649024 366.18020843 125.84366871 369.58766531 126 373 C126.94875 372.154375 127.8975 371.30875 128.875 370.4375 C136.01595126 364.34753552 143.27470386 359.48653272 152 356 C150.54918223 347.51471866 148.14177271 339.35722522 145.65234375 331.1328125 C145.2073832 329.65025756 144.76285639 328.16757239 144.31872559 326.68476868 C143.36373515 323.49934017 142.4059829 320.31476067 141.4460144 317.13082886 C139.91722698 312.06001603 138.3946262 306.98735957 136.87329102 301.91430664 C136.34734319 300.16065758 135.82138792 298.40701075 135.29542542 296.65336609 C135.03139986 295.773039 134.76737431 294.89271191 134.49534798 293.98570824 C133.67984695 291.26745941 132.86373341 288.54939513 132.04747009 285.83137512 C126.08044306 265.9586181 120.1661192 246.07022294 114.25325394 226.1812973 C111.91830385 218.32766712 109.58233888 210.47433877 107.24609375 202.62109375 C107.00886534 201.82358955 106.77163692 201.02608536 106.52721977 200.20441437 C103.03478876 188.46460217 99.53124593 176.72820619 96 165 C95.67 165 95.34 165 95 165 Z M36 240 C29.38413763 248.04514852 22.84589914 256.12904112 16.5625 264.4375 C11.54578791 271.06574704 6.33873599 277.50656347 1.02636719 283.89941406 C-3.304117 289.12168235 -7.47522597 294.43979174 -11.5859375 299.8359375 C-18.0940537 308.36599272 -24.77687164 316.75206714 -31.5625 325.0625 C-37.17902108 331.94193195 -42.6145058 338.93860027 -48 346 C-50.32697566 349.00497936 -52.66298627 352.00282761 -55 355 C-52.62902197 360.20334285 -50.33116473 364.85758787 -45.04350853 367.44886017 C-41.36149704 368.43647478 -37.68482711 369.13840952 -33.92651367 369.74316406 C-32.49942245 370.00840908 -31.07309219 370.27777611 -29.64749146 370.55091858 C-25.79722806 371.27646494 -21.93892821 371.94378871 -18.07638717 372.60035038 C-14.03141416 373.29781001 -9.99618183 374.04774713 -5.95954895 374.79168701 C0.81135431 376.0320793 7.58757147 377.23837843 14.36889648 378.42041016 C23.94148913 380.08903413 33.5022492 381.81895244 43.06166804 383.56124163 C50.48303981 384.91173187 57.90720076 386.24679846 65.33203125 387.578125 C66.12930578 387.72115712 66.92658032 387.86418924 67.74801469 388.01155567 C72.32161672 388.83082139 76.89651236 389.64209129 81.473629 390.4414959 C82.86160235 390.68478742 84.24919064 390.9302872 85.63636208 391.17811012 C87.52374931 391.51473673 89.4127538 391.84225868 91.30183411 392.16925049 C92.88935092 392.4478636 92.88935092 392.4478636 94.50893879 392.73210526 C96.99705475 393.22659226 96.99705475 393.22659226 99 392 C105.75143977 351.49136136 91.54073383 307.4108267 69 274 C66.16014411 270.18071374 63.14678243 266.56891178 60 263 C58.92105469 261.75669922 58.92105469 261.75669922 57.8203125 260.48828125 C48.1043571 248.72887497 48.1043571 248.72887497 36 240 Z " fill="#0B0B0B" transform="translate(270,1)"/>
<path d="M0 0 C0.8855658 0.00215515 1.77113159 0.0043103 2.68353271 0.00653076 C28.30395489 0.10662636 60.41514131 2.63092754 82.4375 17.3125 C81.16344127 20.02283085 79.77693761 22.32420741 77.90625 24.66015625 C77.42542969 25.26537109 76.94460938 25.87058594 76.44921875 26.49414062 C75.95035156 27.11482422 75.45148438 27.73550781 74.9375 28.375 C73.94694672 29.61511128 72.95732835 30.85597004 71.96875 32.09765625 C71.53111328 32.64301025 71.09347656 33.18836426 70.64257812 33.75024414 C69.50744425 35.2218247 68.46841867 36.76612199 67.4375 38.3125 C61.67487796 37.6773723 56.45223274 36.19003861 50.9375 34.4375 C23.74200013 26.04290049 -5.63937019 24.26734767 -33.5625 30.3125 C-34.34061035 30.47878906 -35.1187207 30.64507812 -35.92041016 30.81640625 C-79.96850754 40.57475398 -118.4209621 67.58595482 -142.89941406 105.37646484 C-167.78141356 144.82331393 -175.54909896 191.57552084 -165.53125 237.12890625 C-155.32807695 280.45574556 -128.33162998 318.71462934 -90.6875 342.5 C-50.69173866 367.09426479 -4.05742227 375.18045907 41.796875 364.4921875 C78.22573157 355.46866538 112.66841514 334.41468871 135.4375 304.3125 C136.29371703 303.23003047 137.1505161 302.14802114 138.0078125 301.06640625 C146.16147548 290.56827229 152.31430404 279.0799377 158.4375 267.3125 C166.17346408 267.20413548 166.17346408 267.20413548 168.99169922 269.67529297 C170.26928929 271.47921955 171.33960446 273.29726336 172.375 275.25 C173.1118089 276.53079605 173.8500321 277.8107798 174.58984375 279.08984375 C175.50443359 280.68505859 175.50443359 280.68505859 176.4375 282.3125 C177.0975 282.9725 177.7575 283.6325 178.4375 284.3125 C178.22019633 289.73704349 175.85913046 293.66540791 173.125 298.1875 C172.68422119 298.92492432 172.24344238 299.66234863 171.78930664 300.42211914 C165.04839734 311.47184496 157.20750568 321.74086464 148.38671875 331.2109375 C146.64222294 333.09177667 145.00282432 335.01868031 143.375 337 C140.07854593 340.86233038 136.31958566 344.05443826 132.4375 347.3125 C131.56222656 348.075625 130.68695313 348.83875 129.78515625 349.625 C89.45192405 384.27368269 36.96683315 399.68949999 -15.76367188 396.09423828 C-67.47518864 391.30831554 -116.70536692 367.01203721 -150.328125 327.08203125 C-170.86532059 301.9472836 -184.95888144 273.87037554 -192.5625 242.3125 C-192.77422852 241.45398438 -192.98595703 240.59546875 -193.20410156 239.7109375 C-199.59851006 212.55243548 -199.33144429 180.35469628 -192.5625 153.3125 C-192.31580566 152.31524902 -192.06911133 151.31799805 -191.81494141 150.29052734 C-188.35063239 136.69061564 -183.80253157 123.87669189 -177.5625 111.3125 C-177.21461426 110.6004541 -176.86672852 109.8884082 -176.50830078 109.15478516 C-165.09996589 85.98829458 -148.79106801 63.58022952 -128.5625 47.3125 C-127.83256836 46.71405273 -127.83256836 46.71405273 -127.08789062 46.10351562 C-90.67622518 16.30424343 -47.15572182 -0.20611271 0 0 Z " fill="#0B0B0B" transform="translate(196.5625,175.6875)"/>
<path d="M0 0 C0.66 0.33 1.32 0.66 2 1 C-7.24 10.24 -16.48 19.48 -26 29 C-26.66 28.67 -27.32 28.34 -28 28 C-10.01304348 8.30869565 -10.01304348 8.30869565 0 0 Z " fill="#5F5F5F" transform="translate(657,219)"/>
<path d="M0 0 C0.66 0.33 1.32 0.66 2 1 C-4.6 7.6 -11.2 14.2 -18 21 C-18.66 20.67 -19.32 20.34 -20 20 C-14.78742169 14.09312335 -9.64240088 8.40930729 -3.59375 3.33984375 C-1.88454535 1.94203128 -1.88454535 1.94203128 0 0 Z " fill="#6A6A6A" transform="translate(70,221)"/>
<path d="M0 0 C-1.38188453 3.21043882 -2.92421903 5.04936365 -5.625 7.25 C-6.57246094 8.03117187 -6.57246094 8.03117187 -7.5390625 8.828125 C-8.02117187 9.21484375 -8.50328125 9.6015625 -9 10 C-7.6834994 5.81113445 -4.97532335 0 0 0 Z " fill="#636363" transform="translate(185,353)"/>
<path d="M0 0 C0.66 0.33 1.32 0.66 2 1 C0.71451591 2.33929505 -0.57858155 3.67128643 -1.875 5 C-2.59429688 5.7425 -3.31359375 6.485 -4.0546875 7.25 C-6 9 -6 9 -8 9 C-6.4169423 4.7257442 -3.49431596 2.73468206 0 0 Z " fill="#616161" transform="translate(654,41)"/>
</svg>